<?xml version="1.0" encoding="utf-8"?>
<!-- Generator: Adobe Illustrator 16.0.0, SVG Export Plug-In . SVG Version: 6.00 Build 0)  -->
<!DOCTYPE svg PUBLIC "-//W3C//DTD SVG 1.1//EN" "http://www.w3.org/Graphics/SVG/1.1/DTD/svg11.dtd">
<svg version="1.1" id="Layer_1" xmlns="http://www.w3.org/2000/svg" xmlns:xlink="http://www.w3.org/1999/xlink" x="0px" y="0px"
	 width="171.788px" height="171.811px" viewBox="0 0 260.788 311.811" enable-background="new 0 0 260.788 311.811"
	 xml:space="preserve">
<g>
	<path fill="#AF201F" d="M129.123,310.302c0-8.35-27.497-21.696-62.146-40.481c-34.653-18.785-63.874-53.438-63.874-98.938
		c0-45.506-0.269-165.744-0.269-165.744h252.675c0,0-0.264,120.238-0.264,165.744c0,45.501-29.221,80.153-63.873,98.938
		c-34.654,18.785-62.148,32.132-62.148,40.481H129.123z"/>
	<path fill="#FFFFFF" d="M129.173,294.544c-1.946-3.643-31.104-20.233-52.75-31.969c-34.649-18.785-63.877-53.438-63.877-98.946
		c0-45.499-0.265-149.301-0.265-149.301h233.772c0,0-0.264,103.802-0.264,149.301c0,45.509-29.221,80.161-63.873,98.946
		c-21.596,11.712-50.693,28.264-52.729,31.945L129.173,294.544z"/>
	<path fill="#2A2D69" d="M129.169,285.493c-1.868-3.681-28.4-17.393-46.481-27.189c-34.652-18.794-63.877-53.446-63.877-98.947
		c0-45.506,0-18.114-0.265-138.352h221.252c-0.266,120.238-0.266,92.846-0.266,138.352c0,45.501-29.229,80.153-63.873,98.947
		C157.537,268.124,130.943,281.844,129.169,285.493L129.169,285.493z"/>
	<path fill="#FFFFFF" d="M147.132,60.623c-6.834,0.479-6.389,2.396-1.51,4.436c4.521,1.895,16.824,6.708,18.73,18.778
		c1.906,12.069-3.643,18.863-4.436,18.863s-0.475-1.751-2.07-6.833c-1.58-5.082-5.557-12.226-9.369-14.451
		c-3.805-2.222-7.773-0.949-7.299,0.95c0.475,1.906,10.139,9.786,10,26.684c-0.102,13.027-9.207,16.992-9.207,16.992
		s1.27,16.039,10.164,28.112c7.998,10.854,38.48,17.686,42.877,2.701c5.393-18.424-23.025-28.91-26.527-47.17
		c-6.336-33.131,19.057-47.641,36.527-39.061c16.887,8.288,6.514,35.89,4.451,44.302c-2.07,8.412,0.475,13.338,0.475,14.77
		c0,1.432-13.338-11.12-19.695-23.346c-7.02-13.521,5.244-13.657,12.553-13.338c7.299,0.319,6.162-15.361-7.627-14.132
		c-19.688,1.747-19.369,22.232-15.883,31.758c3.494,9.525,29.852,26.521,28.428,46.217c-1.059,14.565-21.914,22.067-21.914,22.067
		s4.287,7.151,3.113,14.925c-1.168,7.782-12.803,14.614-12.32,16.202c0.996,3.331,25.719,1.424,27.789,8.257
		c2.646,8.747-34.939,44.139-34.939,44.139l-23.184,12.233c0,0,6.506-6.988,13.02-18.902c6.514-11.906,12.381-24.295,12.381-26.202
		c0-1.898-13.018-1.579-18.895-8.895c-7.283-9.058,2.701-30.007,2.701-30.007s-13.65-1.112-31.601-10.318
		c-17.941-9.214-25.882-19.377-25.882-19.377H17.951v-10.955c0,0,16.039-0.156,33.665-3.012
		c17.622-2.864,40.971-9.381,40.971-18.902c0-9.533-74.476-18.739-74.476-18.739v-9.533l41.287,0.163c0,0-2.222-3.494-2.7-8.42
		c-0.479-4.922-0.066-11.12-0.066-11.12s5.312,9.833,28.423,9.214c13.12-0.358,21.085-9.525,20.144-10.467
		c-0.934-0.938-5.856,2.685-13.042,0.498c-7.183-2.187-4.759-10.023-4.759-10.023s2.323,1.424,8.903,1.093
		c4.833-0.245,10.151-3.28,10.151-3.28s-4.164-3.307-10.934-5.151c-6.35-1.735-13.284,10.019-21.704,4.521
		c-8.443-5.501,1.405-18.427,1.405-18.427s-1.187,7.673,3.747,11.875c5.374,4.576,8.198-1.696,15.618-0.708
		c7.089,0.934,13.276,6.482,13.276,6.482s1.568-0.662,3.603-5.346c2.031-4.685-0.576-8.763-4.011-9.852
		c-3.436-1.097-4.875,4.848-9.241,5.093c-7.829,0.44-8.467-2.074-9.093-6.914s-1.564-6.872-4.062-9.374
		c-2.498-2.494,6.093-5.151,18.743-6.245c12.649-1.097,28.736-0.778,28.736-0.778s4.84-6.716,12.49-3.599
		c7.658,3.128,4.373,14.685,4.373,14.685s4.686,5.311,8.748,10.618c4.061,5.311,4.527,13.432,4.527,13.432
		C160.984,66.42,153.957,60.144,147.132,60.623z M121.111,46.055c7.202-0.334,8.019-7.338,8.019-7.338l-12.914-0.062
		C116.216,38.654,113.905,46.401,121.111,46.055z M143.513,193.418c0,0-39.654-20.785-56.584-3.167
		c-20.466,21.299,12.315,34.115,5.992,42.271c-3.42,4.404-20.136,21.143-20.136,21.143l9.155,5.479c0,0,20.466-15.976,35.777-23.462
		c15.305-7.486,1.665-14.646-1.502-17.307C113.057,215.713,98.104,200.569,143.513,193.418z"/>
</g>
</svg>
